<?xml version="1.0"?>
<!DOCTYPE svg PUBLIC "-//W3C//DTD SVG 1.1//EN" "http://www.w3.org/Graphics/SVG/1.1/DTD/svg11.dtd">
<svg xmlns="http://www.w3.org/2000/svg" version="1.1" width="800" height="800">
      <circle cx="100" cy="100" r="50" fill="red"  />
      <circle cx="200" cy="100" r="25" fill="green"  />
      <circle cx="300" cy="100" r="10" fill="blue"  />
      <circle cx="75" cy="75" r="50" fill="black"  />
      <circle cx="375" cy="250" r="30" fill="orange"  />
      <rect x="250" y="600" width="140" height="60" fill="silver"  />
      <rect x="230" y="620" width="30" height="40" fill="silver"  />
      <circle cx="285" cy="660" r="20" fill="black"  />
      <circle cx="355" cy="660" r="20" fill="black"  />
      <polygon points="500,400 650,400 575,350" fill="purple" />
      <rect x="524" y="400" width="100" height="70" fill="orange"  />
      <rect x="563" y="436" width="22" height="34" fill="red"  />
      <polygon points="60,400 180,400 120,500" fill="gray" />
      <polygon points="60,400 180,400 120,300" fill="pink" />
      <ellipse cx="550" cy="100" rx="70" ry="20" fill="aqua"  />
      <ellipse cx="650" cy="120" rx="70" ry="15" fill="aqua"  />
      <ellipse cx="700" cy="80" rx="65" ry="17" fill="aqua"  />
      <ellipse cx="600" cy="75" rx="25" ry="8" fill="aqua"  />
      <ellipse cx="550" cy="65" rx="22" ry="6" fill="aqua"  />
      <rect x="600" y="700" width="150" height="10" fill="black"  />
</svg>
